<svg class="main-svg" xmlns="http://www.w3.org/2000/svg" xmlns:xlink="http://www.w3.org/1999/xlink" width="700" height="500" style="" viewBox="0 0 700 500"><rect x="0" y="0" width="700" height="500" style="fill: rgb(255, 255, 255); fill-opacity: 1;"/><defs id="defs-11577c"><g class="clips"><clipPath id="clip11577cxyplot" class="plotclip"><rect width="540" height="320"/></clipPath><clipPath class="axesclip" id="clip11577cx"><rect x="80" y="0" width="540" height="500"/></clipPath><clipPath class="axesclip" id="clip11577cy"><rect x="0" y="100" width="700" height="320"/></clipPath><clipPath class="axesclip" id="clip11577cxy"><rect x="80" y="100" width="540" height="320"/></clipPath></g><g class="gradients"/><g class="patterns"/></defs><g class="bglayer"/><g class="layer-below"><g class="imagelayer"/><g class="shapelayer"/></g><g class="cartesianlayer"><g class="subplot xy"><g class="layer-subplot"><g class="shapelayer"/><g class="imagelayer"/></g><g class="minor-gridlayer"><g class="x"/><g class="y"/></g><g class="gridlayer"><g class="x"><path class="xgrid crisp" transform="translate(188,0)" d="M0,100v320" style="stroke: rgb(235, 240, 248); stroke-opacity: 1; stroke-width: 1px;"/><path class="xgrid crisp" transform="translate(296,0)" d="M0,100v320" style="stroke: rgb(235, 240, 248); stroke-opacity: 1; stroke-width: 1px;"/><path class="xgrid crisp" transform="translate(404,0)" d="M0,100v320" style="stroke: rgb(235, 240, 248); stroke-opacity: 1; stroke-width: 1px;"/><path class="xgrid crisp" transform="translate(512,0)" d="M0,100v320" style="stroke: rgb(235, 240, 248); stroke-opacity: 1; stroke-width: 1px;"/></g><g class="y"><path class="ygrid crisp" transform="translate(0,346.4)" d="M80,0h540" style="stroke: rgb(235, 240, 248); stroke-opacity: 1; stroke-width: 1px;"/><path class="ygrid crisp" transform="translate(0,288.8)" d="M80,0h540" style="stroke: rgb(235, 240, 248); stroke-opacity: 1; stroke-width: 1px;"/><path class="ygrid crisp" transform="translate(0,231.2)" d="M80,0h540" style="stroke: rgb(235, 240, 248); stroke-opacity: 1; stroke-width: 1px;"/><path class="ygrid crisp" transform="translate(0,173.6)" d="M80,0h540" style="stroke: rgb(235, 240, 248); stroke-opacity: 1; stroke-width: 1px;"/><path class="ygrid crisp" transform="translate(0,116)" d="M80,0h540" style="stroke: rgb(235, 240, 248); stroke-opacity: 1; stroke-width: 1px;"/></g></g><g class="zerolinelayer"><path class="yzl zl crisp" transform="translate(0,404)" d="M80,0h540" style="stroke: rgb(235, 240, 248); stroke-opacity: 1; stroke-width: 2px;"/></g><g class="layer-between"><g class="shapelayer"/><g class="imagelayer"/></g><path class="xlines-below"/><path class="ylines-below"/><g class="overlines-below"/><g class="xaxislayer-below"/><g class="yaxislayer-below"/><g class="overaxes-below"/><g class="overplot"><g class="xy" transform="translate(80,100)" clip-path="url(#clip11577cxyplot)"><g class="scatterlayer mlayer"><g class="trace scatter traceda9d00" style="stroke-miterlimit: 2; opacity: 1;"><g class="fills"/><g class="errorbars"/><g class="lines"><path class="js-line" d="M0,300.07L1.32,300.6L1.47,300.44L2.21,299.09L2.5,299.53L2.65,299.88L4.71,300.06L4.85,299.94L5.59,300.03L5.74,300.11L6.91,300.3L7.06,300.15L11.62,298.6L11.77,298.8L12.06,299.14L12.36,298.67L12.5,298.37L12.94,298.29L13.09,298.73L13.24,299.23L14.12,299.49L14.27,299.71L15.15,299.1L15.3,299.3L15.45,299.53L16.62,300.08L16.77,299.98L17.8,299.56L17.95,299.77L18.68,299.97L18.83,299.72L19.12,299.25L19.42,299.97L19.56,300.29L21.33,299.01L21.48,299.21L21.62,299.42L22.36,299.12L22.51,299.13L24.71,299.54L24.86,299.71L26.04,299.48L26.18,299.75L26.92,299.32L27.07,299.09L27.8,298.76L27.95,298.9L28.1,299.2L28.39,299.91L28.83,299.1L28.98,298.91L30.01,298.98L30.16,298.94L31.63,299.12L31.77,299.16L32.21,298.62L32.36,298.39L33.24,298.61L33.39,298.74L35.6,298.69L35.75,298.44L36.04,298.24L36.48,298.59L36.63,298.6L38.83,298.85L38.98,298.49L40.75,298.1L40.89,298.03L41.78,298.34L41.92,298.42L43.54,298.33L43.69,298.41L44.28,297.97L44.42,297.74L45.16,297.6L45.31,297.83L45.45,298.15L46.92,299.69L47.07,299.28L47.81,298.11L47.95,298.36L48.1,298.58L48.98,298.71L49.13,298.65L50.01,298.83L50.16,298.81L51.04,298.07L51.19,298.19L51.34,298.32L52.51,298.41L52.66,298.34L55.01,297.51L55.16,297.35L55.75,296.86L56.04,297.37L56.19,297.7L56.78,297.31L56.93,297.19L58.25,296.87L58.4,297.02L59.72,298.1L59.87,298.09L60.75,296.73L61.05,297.09L61.19,297.27L62.37,297.24L62.52,297.08L63.4,297.08L63.55,297.42L64.28,297.8L64.43,297.53L64.72,297.24L65.02,297.86L65.16,297.94L66.64,296.89L66.78,296.93L68.11,297.09L68.25,297.09L69.14,297.11L69.28,297.22L70.02,296.86L70.17,296.8L71.49,296.83L71.64,297L72.23,297.13L72.37,296.97L72.52,296.74L73.55,296.27L73.7,296.47L73.99,296.82L74.28,296.38L74.43,296.14L75.76,295.96L75.9,296.08L77.37,296.3L77.52,296.28L78.7,295.37L78.84,295.35L80.61,296.57L80.76,296.36L81.49,294.81L81.93,295.17L82.08,295.22L84.29,296.04L84.43,295.78L85.61,295.34L85.76,295.16L86.79,294.53L86.94,294.69L87.08,294.81L88.85,295.03L88.99,295.01L90.32,293.48L90.61,293.82L90.76,294.04L92.38,295.69L92.53,295.51L93.41,294.09L93.7,294.46L93.85,294.55L96.79,294.23L96.94,294.37L99,294.19L99.14,294.11L100.76,292.91L100.91,292.71L102.09,293.03L102.23,292.86L103.26,292.3L103.41,291.99L103.7,291.72L104,292.12L104.15,292.5L104.44,293.1L105.03,292.77L105.18,292.83L106.21,291.07L106.5,291.63L106.65,291.9L107.97,292.42L108.12,292.21L108.85,291.93L109,292.17L109.15,292.49L109.29,292.78L109.74,292.35L109.88,292.05L110.91,291.55L111.06,291.47L113.12,290.89L113.27,290.74L115.47,289.52L115.62,289.65L116.21,290.01L116.5,289.55L116.65,289.45L118.41,289.46L118.56,289.09L120.92,287.87L121.06,287.8L122.09,287.78L122.24,287.63L124.15,286.46L124.3,286.51L125.92,286.81L126.06,286.61L127.53,285.74L127.68,285.69L129.74,284.65L129.89,284.45L131.8,283.19L131.95,283.1L133.27,282.17L133.42,282.44L133.57,282.8L134.45,281.75L134.6,281.52L135.77,279.78L136.07,280.1L136.21,280.24L136.65,280.8L136.95,280.3L137.1,280.04L137.98,280.02L138.13,279.53L138.86,278.33L139.01,278.48L139.16,278.67L139.74,278.45L139.89,278.18L141.51,276.16L141.66,276.03L144.3,274.37L144.45,274.1L146.95,270.29L147.1,270.13L148.57,268.18L148.72,267.71L149.45,266.23L149.6,266.5L149.75,266.85L149.89,267.18L150.34,266.5L150.48,266.41L151.07,265.48L151.22,264.91L151.66,263.64L152.1,264.49L152.25,264.57L152.84,264.03L152.98,263.63L154.31,261.14L154.6,261.59L154.75,261.77L155.63,259.78L155.78,260.16L155.92,260.79L156.22,261.39L156.66,260.71L156.81,260.43L158.43,256.08L158.72,256.2L158.87,256.47L159.16,257.08L159.46,256.41L159.6,255.95L160.93,254.14L161.07,254.17L161.81,254.35L161.96,254.05L162.1,253.76L163.13,252.03L163.28,252.9L163.43,253.99L164.02,256.51L164.31,254.89L164.46,254.05L164.9,255.83L165.04,255.01L165.19,253.62L165.78,248.09L166.22,250.19L166.37,250.53L166.66,250.46L166.81,249.86L168.43,245.36L168.58,246.32L168.87,248.74L169.31,247.74L169.46,246.47L169.75,243.6L170.19,246.06L170.34,247.34L171.96,256.83L172.11,254.9L173.28,233.52L173.72,235L173.87,237.32L174.61,248.6L175.05,246.8L175.19,245.13L176.37,228.22L176.81,230.18L176.96,230.76L177.4,234.02L177.55,236.13L178.43,239.25L178.58,239.01L179.75,224.77L180.05,225.54L180.2,226.37L180.34,226.85L180.64,225.43L180.78,224.97L181.37,230.32L181.81,228.56L181.96,227L184.76,210.41L184.9,210.88L185.64,213.71L185.79,212.6L185.93,211.11L186.96,208.35L187.11,208.6L187.55,211.14L187.7,212.94L187.85,214.13L188.14,210.79L188.29,208.55L188.73,201.62L189.17,204.69L189.32,208.07L189.61,215.19L190.05,211.97L190.2,208.66L190.79,200.01L191.08,204.31L191.23,209.03L191.82,229.51L192.26,223.35L192.41,218.1L193.14,202.97L193.29,207.06L193.44,212.53L194.02,234.52L194.46,224.22L194.61,219.53L195.79,196.91L195.94,197.43L196.08,198.73L196.67,204.45L196.97,200.74L197.11,198.57L198.88,180.15L199.02,182.77L199.17,186.35L199.76,204.39L200.2,199.56L200.35,194.67L201.23,173.72L201.53,174.98L201.67,174.8L202.26,171L202.41,169.66L203.29,165.47L203.44,166.47L203.58,167.81L204.17,185.82L204.32,189.97L204.61,195.46L204.76,191.4L204.91,185.6L206.23,157.7L206.38,158.3L207.7,184.5L208,181.14L208.14,179.87L208.73,184.06L209.03,181.98L209.17,176.96L210.79,140.16L210.94,139.48L211.23,138.66L211.38,139.5L211.53,140.74L213.44,175.9L213.59,173.46L213.73,170.18L215.65,124.98L215.94,125.57L216.09,125.83L216.53,124.71L216.68,125.65L216.82,126.98L217.56,144.35L217.71,150.98L218,156.96L218.29,153.8L218.44,146.75L219.32,115.67L219.62,117.17L219.77,121.51L220.5,142.5L220.8,135.37L220.94,130.51L221.83,106.84L222.12,112.14L222.27,116.04L222.85,134.87L223.15,131.9L223.3,125.8L224.62,95.06L224.77,94.38L225.36,90.9L225.65,93.21L225.8,94.02L226.39,87.52L226.53,84.46L226.83,81.97L227.12,83.38L227.27,86.4L228.3,108.99L228.59,104.69L228.74,100.31L230.65,64.32L230.8,64.03L230.95,63.83L231.09,64.09L231.24,65.42L231.53,67.99L231.97,66.38L232.12,64.62L232.42,62L232.71,66.44L232.86,69.17L233.3,77.63L233.74,73.09L233.89,70.27L235.8,44.42L235.95,43.17L236.83,35.61L237.12,37.14L237.27,37.96L238.45,46.86L238.59,45.87L238.74,42.55L239.62,28L239.92,28.13L240.07,28.71L240.36,29.44L240.51,28.63L240.65,27.72L241.54,20.78L241.83,22L241.98,23.09L243.15,27.09L243.45,26.96L243.6,26.61L244.04,23.85L244.18,22.29L245.51,16.25L245.66,16L247.71,33.95L247.86,33.6L248.01,31.38L248.74,22.25L249.04,24.12L249.19,25.86L249.92,36.25L250.22,34.35L250.36,32.49L250.95,29.57L251.24,31.17L251.39,32.02L253.01,48.36L253.16,51.81L253.6,59.35L254.04,55.73L254.19,54.51L254.48,52.93L254.78,55.77L254.92,57.86L255.8,67.59L256.1,66.87L256.25,66.85L256.98,74.96L257.13,77.7L258.45,88.36L258.6,90.56L260.07,101.67L260.22,103.29L261.84,133.25L261.98,136.74L262.28,138.45L262.57,136.95L262.72,135.54L262.87,134.71L263.31,136.4L263.45,138L268.46,187.35L268.6,188.07L274.05,229.62L274.19,230.38L281.4,263.44L281.55,263.68L283.17,268.41L283.31,269.07L284.93,273.28L285.08,273.52L288.31,280.88L288.46,281.4L289.2,283.55L289.64,283.24L289.78,283.15L290.37,283.96L290.52,284.3L291.55,286.36L291.7,286.17L291.84,285.96L293.32,287.33L293.46,287.44L294.2,288.54L294.34,288.87L295.37,289.32L295.52,289.44L298.02,292.27L298.17,292.1L298.46,291.89L298.76,292.38L298.9,292.69L301.26,295.2L301.41,294.92L301.55,294.58L302.73,294.41L302.88,294.34L304.79,296.05L304.94,295.8L305.08,295.54L305.67,296.04L305.82,296.23L307.58,297.45L307.73,297.6L309.2,297.67L309.35,297.88L311.26,299.41L311.41,299.28L311.85,298.77L312.29,299.02L312.44,299.08L315.09,299.47L315.23,299.85L315.67,300.12L315.97,299.84L316.12,299.76L317,299.38L317.15,299.18L317.88,299.31L318.03,299.62L319.5,301.85L319.65,301.74L319.79,301.26L320.53,299.82L320.68,300.16L320.82,300.56L321.56,300.77L321.71,300.68L321.85,300.56L323.91,301.72L324.06,301.99L325.82,301.77L325.97,301.8L326.85,301.75L327,301.45L328.18,300.88L328.32,300.93L329.5,301.21L329.65,301.03L330.97,301.04L331.12,301.21L331.56,302.42L332,301.86L332.15,301.89L332.74,301.29L332.88,300.96L333.33,300.76L333.47,301.08L333.62,301.43L334.5,302.28L334.65,302.06L334.8,301.99L336.71,302.54L336.86,302.6L337.3,302.08L337.59,302.81L337.74,303.03L339.65,302.65L339.8,302.76L341.42,302.41L341.56,302.51L343.03,302.46L343.18,302.46L344.06,302.47L344.21,302.84L344.95,302.77L345.09,302.66L346.12,302.4L346.27,302.61L346.56,302.94L346.86,302.32L347.01,302.21L348.77,302.72L348.92,302.52L349.65,302.16L349.95,302.4L350.1,302.4L350.54,301.72L350.83,302.14L350.98,302.41L352.01,303.02L352.15,303.27L353.04,303.15L353.18,302.94L353.92,301.44L354.21,301.87L354.36,302.24L354.95,302.98L355.24,302.32L355.39,302.2L358.04,302.97L358.19,302.98L359.51,302.74L359.66,302.87L361.42,302.6L361.57,302.63L362.16,302.32L362.3,302L362.75,301.42L363.04,301.91L363.19,302.13L364.81,303.4L364.95,303.3L365.83,302.04L366.13,302.47L366.28,302.64L369.07,302.9L369.22,303.02L370.25,303.2L370.4,303.12L374.66,302.11L374.81,302.07L376.28,301.69L376.43,301.55L377.75,303.07L377.9,302.87L378.04,302.7L378.63,302.11L378.78,302.35L378.93,302.62L379.81,303.21L379.96,303.06L380.1,302.81L380.84,302.21L380.99,302.43L381.13,302.64L382.16,303.07L382.31,302.8L382.6,302.42L382.9,302.99L383.05,303.11L384.22,302.82L384.37,302.75L385.1,303.33L385.25,303.44L386.58,302.41L386.87,302.8L387.02,302.89L388.34,302.78L388.49,302.85L390.11,303.07L390.25,302.88L391.14,302.71L391.28,302.71L392.17,303.16L392.31,302.93L393.2,302.7L393.34,302.47L393.64,302.24L393.93,302.78L394.08,302.79L394.96,302.35L395.25,302.7L395.4,302.7L395.84,301.81L396.28,302.29L396.43,302.36L398.64,303.41L398.79,303.14L399.37,301.98L399.67,302.45L399.81,302.57L402.17,302.72L402.32,302.53L403.93,302.73L404.08,302.52L404.67,302.48L404.82,302.66L404.96,302.89L405.85,302.89L405.99,303.08L407.46,302.53L407.61,302.2L408.05,301.89L408.35,302.35L408.49,302.5L410.26,303.91L410.41,303.62L410.55,303.17L411.14,301.86L411.58,302.35L411.73,302.4L413.64,302.98L413.79,302.93L415.41,303.41L415.55,303.16L416.58,303.24L416.73,303.37L418.2,302.55L418.35,302.41L418.79,302.03L419.23,302.35L419.38,302.28L420.85,301.91L421,301.76L421.59,301.35L421.73,301.49L421.88,301.91L422.47,302.83L422.76,302.69L422.91,302.65L423.35,302.53L423.5,302.29L423.64,301.94L423.94,301.28L424.23,301.93L424.38,302.33L425.56,303.15L425.7,303.07L426.59,302.77L426.73,302.97L427.47,303.55L427.76,303.21L427.91,303.06L428.35,303.41L428.65,302.81L428.79,302.55L430.12,302.92L430.26,303.07L430.56,303.16L430.71,302.81L430.85,302.48L431.44,302.36L431.59,302.51L431.74,302.66L432.47,302.49L432.62,302.27L433.21,301.96L433.35,302.22L433.5,302.47L433.94,302.77L434.24,302.5L434.38,302.41L435.85,302.61L436,302.59L440.41,302.53L440.56,302.68L441.74,302.24L441.89,302.38L443.65,303.16L443.8,303.11L444.68,301.9L444.97,302.26L445.12,302.42L445.56,302.89L446,302.42L446.15,302.35L446.89,302.72L447.03,302.78L448.36,302.59L448.5,302.6L452.48,302.56L452.62,302.3L453.36,301.51L453.65,301.8L453.8,302.03L455.27,303.87L455.42,303.75L456.45,302.31L456.59,302.57L456.74,302.86L457.48,302.92L457.62,302.71L457.77,302.45L458.21,302.33L458.51,302.77L458.65,302.92L459.83,302.59L459.98,302.84L460.86,303.41L461.16,303.12L461.3,303.04L464.39,301.99L464.54,302.28L465.13,302.86L465.42,302.57L465.57,302.44L467.04,301.8L467.19,302.32L467.48,303.21L467.92,302.52L468.07,302.69L468.36,302.98L468.66,302.49L468.8,302.18L469.25,301.98L469.39,302.29L469.54,302.61L470.86,303.15L471.01,302.99L471.89,303.01L472.04,303.28L472.33,303.57L472.78,303.16L472.92,302.87L473.07,302.62L473.36,303.11L473.51,303.46L474.1,302.92L474.25,302.86L475.57,302.72L475.72,302.93L477.19,302.69L477.34,302.91L477.78,302.86L477.92,302.73L478.07,302.56L478.51,302.36L478.81,302.77L478.95,302.88L479.98,302.97L480.13,303.21L480.87,303.03L481.01,302.75L481.45,301.78L481.9,302.08L482.04,302.33L482.48,302.8L482.78,302.34L482.93,302.25L484.25,302.19L484.4,302.52L485.13,302.63L485.28,302.51L485.43,302.38L485.87,302.58L486.01,302.25L486.16,301.92L486.46,301.73L486.75,302.17L486.9,302.3L489.4,302.63L489.55,302.38L489.84,302.12L490.13,302.61L490.28,302.77L494.11,302.58L494.25,302.34L495.72,302.21L495.87,301.92L496.02,301.76L496.31,302.42L496.46,302.8L499.25,302.44L499.4,302.66L500.72,303.48L500.87,303.34L501.02,303.04L501.61,302.27L501.9,302.65L502.05,302.9L503.52,303.25L503.67,303.06L504.84,302.84L504.99,303.02L505.87,303.03L506.02,302.86L507.64,302.38L507.79,302.32L509.11,302.24L509.26,302.24L510.73,302L510.87,301.92L511.9,301.59L512.05,301.47L512.35,301.86L512.49,302.42L512.79,302.95L513.23,302.68L513.38,302.58L514.26,301.26L514.4,301.07L515.58,303.2L515.88,302.88L516.02,302.71L517.35,302.88L517.49,303L517.94,303.49L518.23,302.79L518.38,302.56L518.82,303.33L519.26,302.96L519.41,302.91L523.67,302.4L523.82,302.52L524.7,302.46L524.85,302.31L525.29,303.03L525.44,303.26L527.94,302.72L528.08,302.46L532.79,302.2L532.94,302.49L533.67,303.3L533.97,302.94L534.12,302.84L535,301.99L535.29,302.52L535.44,302.78L536.62,302.95L536.76,303.06L537.35,303.65L537.65,303.33L537.79,303.04L538.23,302.31L538.68,302.56L538.82,302.66L539.71,302.39L539.85,302.46L540,302.6" style="vector-effect: none; fill: none; stroke: rgb(99, 110, 250); stroke-opacity: 1; stroke-width: 2px; opacity: 1;"/></g><g class="points"/><g class="text"/></g><g class="trace scatter trace2e35a1" style="stroke-miterlimit: 2; opacity: 1;"><g class="fills"/><g class="errorbars"/><g class="lines"><path class="js-line" d="M0,302.24L1.91,302.02L2.06,302.03L11.18,301.99L11.33,301.93L13.39,301.73L13.53,301.75L31.33,301.04L31.48,301L37.8,301.1L37.95,300.99L39.13,300.87L39.28,300.87L42.66,300.49L42.81,300.56L43.98,300.44L44.13,300.38L45.16,300.72L45.31,300.77L49.72,300.46L49.87,300.56L50.9,300.43L51.04,300.4L53.84,300.25L53.99,300.21L55.16,300.12L55.31,300.19L58.1,300L58.25,299.92L59.87,299.88L60.02,299.85L63.4,299.68L63.55,299.68L83.7,297.71L83.85,297.64L86.35,297.35L86.49,297.41L88.26,297.23L88.41,297.26L92.82,296.85L92.97,296.78L98.7,296.13L98.85,296.05L101.35,295.78L101.5,295.83L102.97,295.63L103.12,295.65L105.62,295.05L105.76,294.99L110.32,294.32L110.47,294.27L124.45,290.3L124.59,290.16L126.51,289.66L126.65,289.65L128.56,289.11L128.71,289.03L132.09,287.37L132.24,287.36L142.39,281.46L142.54,281.35L145.33,278.99L145.48,278.83L150.19,274.62L150.34,274.43L155.63,269.07L155.78,269.35L156.22,269.93L156.66,269.54L156.81,269.27L158.28,265.33L158.57,266.15L158.72,266.54L159.16,266.32L159.31,265.8L160.04,264.39L160.19,264.51L160.34,264.67L160.93,264.43L161.07,264.24L162.69,261.83L162.99,262.39L163.13,262.92L163.72,265.94L164.16,265.1L164.31,264.58L165.04,263.04L165.19,261.5L165.78,258.45L166.07,260.11L166.22,260.89L166.66,260.4L166.81,259.65L167.99,256.34L168.13,256.41L168.58,258.07L168.72,259.26L168.87,260.03L169.16,258.07L169.31,256.8L169.75,254.06L170.05,256.55L170.19,257.93L171.81,265.33L171.96,264.79L172.11,262.35L173.28,244.56L173.43,245.34L173.58,246.6L174.46,257.49L174.75,256.82L174.9,256.06L175.64,246.41L175.78,243.83L176.37,240.04L176.67,241.22L176.81,241.98L177.84,249.69L178.28,248.94L178.43,249.02L178.73,246.56L178.87,244.02L179.46,235.34L179.9,238.16L180.05,238.2L180.34,237.78L180.64,238.12L180.78,238.66L181.23,242.84L181.52,240.57L181.67,239.19L184.46,224.09L184.61,224.15L184.76,224.4L185.2,227.02L185.64,225.86L185.79,224.77L186.82,222.03L186.96,221.89L187.7,226.13L187.85,225.91L187.99,223.93L188.73,215.37L188.88,217.22L189.02,219.86L189.61,228.84L189.9,224.17L190.05,221.34L190.49,214.12L190.93,218.28L191.08,223.37L191.82,242.13L191.96,238.91L192.11,234.32L192.85,217.87L193.14,220.39L193.29,226.21L194.02,245.54L194.17,241.29L194.32,235.59L195.64,211.92L195.79,211.04L196.38,218.31L196.82,215.91L196.97,213.92L198.73,196.59L198.88,197.59L199.02,201.79L199.76,219.21L200.05,211.71L200.2,207.29L201.08,189.95L201.38,191.7L201.53,192.36L203.14,182.69L203.29,182.89L203.44,184.79L204.32,209.18L204.61,206.4L204.76,200.57L205.94,175.57L206.09,176.06L206.53,182.22L206.67,186.73L207.41,199.2L207.7,197.89L207.85,196.05L208.14,193.07L208.29,195.43L208.44,198.53L208.59,200.36L208.73,198.08L208.88,194.7L210.79,158.12L210.94,157.68L211.09,157.4L211.23,157.82L211.38,160.41L213,190.4L213.29,189.17L213.44,187.71L215.94,143.1L216.09,142.88L216.38,142.8L216.53,143.27L216.68,145.14L217.71,173L217.85,176.64L219.18,133.65L219.47,138.03L219.62,141.08L220.35,157.64L220.65,152.06L220.8,145.95L221.68,126.95L221.83,127.99L221.97,132.22L222.71,154.6L223,147.6L223.15,143.08L224.47,114.66L224.62,113.81L225.21,111.85L225.5,113.03L225.65,114.25L225.8,114.66L225.94,112.74L226.68,102.61L226.97,105.13L227.12,107.48L228,127.37L228.3,123.96L228.44,121.49L230.5,85.47L230.65,85.61L231.53,89.93L231.68,88.62L231.83,87.09L232.27,84.18L232.42,84.56L232.56,88.08L233.15,96.99L233.45,94.61L233.59,91.96L235.8,63.27L235.95,61.74L236.54,57.54L236.83,57.92L236.98,58.69L238.15,68.4L238.3,66.52L238.45,64.25L239.48,46.65L239.77,47.84L239.92,48.13L240.36,46.53L240.51,44.73L241.24,37.02L241.68,37.93L241.83,38.5L242.86,40.34L243.01,40.29L243.15,39.57L245.07,25.38L245.21,24.2L245.51,22.62L245.8,24.83L245.95,27.17L246.54,33.06L246.98,31.32L247.13,32.72L247.42,34.76L247.71,31.32L247.86,29.08L248.74,17.36L248.89,18.71L249.04,20.3L249.63,29.49L249.92,25.6L250.07,23.55L250.95,16L251.1,17.04L251.24,18.16L251.39,18.8L251.83,17.94L251.98,17.7L252.13,17.54L252.27,18.03L252.42,19.69L253.16,33.65L253.6,31.17L253.75,28.47L254.33,22.53L254.63,25.44L254.78,28.03L255.36,32.73L255.66,30.65L255.8,29.87L256.1,29.36L256.39,30.25L256.54,31.21L257.57,43.56L257.72,42.53L257.86,41.56L258.01,41.38L258.16,42.37L258.31,43.52L258.89,49.89L259.48,48.94L259.63,48.97L260.07,52.47L260.22,53.81L261.1,63.23L261.25,68.53L261.98,87.97L262.28,83.61L262.42,81.78L262.87,78.35L263.16,80.64L263.31,81.72L265.95,107.16L266.1,109.47L267.72,133.34L268.01,133.18L268.16,133.63L271.54,167.09L271.69,169.05L273.46,185.91L273.6,187.35L278.61,229.07L278.75,229.99L284.93,261.86L285.08,262.34L289.93,276.43L290.08,276.79L292.43,281.3L292.58,281.55L296.99,288.15L297.14,288.18L298.61,289.96L298.76,290.28L300.23,291.72L300.38,291.83L304.49,294.68L304.64,294.74L312.59,298.49L312.73,298.5L315.53,299.39L315.67,299.5L318.47,300.48L318.62,300.4L320.53,300.97L320.68,301.03L323.32,301.36L323.47,301.38L330.83,302.36L330.97,302.29L333.91,302.62L334.06,302.65L337.59,302.85L337.74,302.85L340.83,302.93L340.98,302.88L343.48,303.1L343.62,303.11L351.27,303.22L351.42,303.13L353.63,303.25L353.77,303.31L356.27,303.48L356.42,303.39L358.33,303.3L358.48,303.3L365.39,303.57L365.54,303.55L376.13,303.67L376.28,303.57L377.75,303.78L377.9,303.81L391.14,303.52L391.28,303.5L394.23,303.62L394.37,303.56L398.93,303.62L399.08,303.67L402.76,303.68L402.9,303.6L404.37,303.58L404.52,303.62L416.58,303.72L416.73,303.68L419.38,303.84L419.53,303.93L424.82,303.46L424.97,303.5L427.32,303.56L427.47,303.53L540,303.35" style="vector-effect: none; fill: none; stroke: rgb(239, 85, 59); stroke-opacity: 1; stroke-width: 2px; opacity: 1;"/></g><g class="points"/><g class="text"/></g></g></g></g><path class="xlines-above crisp" d="M0,0" style="fill: none;"/><path class="ylines-above crisp" d="M0,0" style="fill: none;"/><g class="overlines-above"/><g class="xaxislayer-above"><g class="xtick"><text text-anchor="middle" x="0" y="433" transform="translate(80,0)" style="font-family: 'Open Sans', verdana, arial, sans-serif; font-size: 12px; fill: rgb(42, 63, 95); fill-opacity: 1; white-space: pre; opacity: 1;">1200</text></g><g class="xtick"><text text-anchor="middle" x="0" y="433" style="font-family: 'Open Sans', verdana, arial, sans-serif; font-size: 12px; fill: rgb(42, 63, 95); fill-opacity: 1; white-space: pre; opacity: 1;" transform="translate(188,0)">1300</text></g><g class="xtick"><text text-anchor="middle" x="0" y="433" style="font-family: 'Open Sans', verdana, arial, sans-serif; font-size: 12px; fill: rgb(42, 63, 95); fill-opacity: 1; white-space: pre; opacity: 1;" transform="translate(296,0)">1400</text></g><g class="xtick"><text text-anchor="middle" x="0" y="433" style="font-family: 'Open Sans', verdana, arial, sans-serif; font-size: 12px; fill: rgb(42, 63, 95); fill-opacity: 1; white-space: pre; opacity: 1;" transform="translate(404,0)">1500</text></g><g class="xtick"><text text-anchor="middle" x="0" y="433" style="font-family: 'Open Sans', verdana, arial, sans-serif; font-size: 12px; fill: rgb(42, 63, 95); fill-opacity: 1; white-space: pre; opacity: 1;" transform="translate(512,0)">1600</text></g><g class="xtick"><text text-anchor="middle" x="0" y="433" style="font-family: 'Open Sans', verdana, arial, sans-serif; font-size: 12px; fill: rgb(42, 63, 95); fill-opacity: 1; white-space: pre; opacity: 1;" transform="translate(620,0)">1700</text></g></g><g class="yaxislayer-above"><g class="ytick"><text text-anchor="end" x="79" y="4.199999999999999" transform="translate(0,404)" style="font-family: 'Open Sans', verdana, arial, sans-serif; font-size: 12px; fill: rgb(42, 63, 95); fill-opacity: 1; white-space: pre; opacity: 1;">0</text></g><g class="ytick"><text text-anchor="end" x="79" y="4.199999999999999" style="font-family: 'Open Sans', verdana, arial, sans-serif; font-size: 12px; fill: rgb(42, 63, 95); fill-opacity: 1; white-space: pre; opacity: 1;" transform="translate(0,346.4)">0.2</text></g><g class="ytick"><text text-anchor="end" x="79" y="4.199999999999999" style="font-family: 'Open Sans', verdana, arial, sans-serif; font-size: 12px; fill: rgb(42, 63, 95); fill-opacity: 1; white-space: pre; opacity: 1;" transform="translate(0,288.8)">0.4</text></g><g class="ytick"><text text-anchor="end" x="79" y="4.199999999999999" style="font-family: 'Open Sans', verdana, arial, sans-serif; font-size: 12px; fill: rgb(42, 63, 95); fill-opacity: 1; white-space: pre; opacity: 1;" transform="translate(0,231.2)">0.6</text></g><g class="ytick"><text text-anchor="end" x="79" y="4.199999999999999" style="font-family: 'Open Sans', verdana, arial, sans-serif; font-size: 12px; fill: rgb(42, 63, 95); fill-opacity: 1; white-space: pre; opacity: 1;" transform="translate(0,173.6)">0.8</text></g><g class="ytick"><text text-anchor="end" x="79" y="4.199999999999999" style="font-family: 'Open Sans', verdana, arial, sans-serif; font-size: 12px; fill: rgb(42, 63, 95); fill-opacity: 1; white-space: pre; opacity: 1;" transform="translate(0,116)">1</text></g></g><g class="overaxes-above"/></g></g><g class="polarlayer"/><g class="smithlayer"/><g class="ternarylayer"/><g class="geolayer"/><g class="funnelarealayer"/><g class="pielayer"/><g class="iciclelayer"/><g class="treemaplayer"/><g class="sunburstlayer"/><g class="glimages"/><defs id="topdefs-11577c"><g class="clips"/><clipPath id="legend11577c"><rect width="249" height="48" x="0" y="0"/></clipPath></defs><g class="layer-above"><g class="imagelayer"/><g class="shapelayer"/></g><g class="infolayer"><g class="legend" pointer-events="all" transform="translate(80,236)"><rect class="bg" shape-rendering="crispEdges" width="249" height="48" x="0" y="0" style="stroke: rgb(68, 68, 68); stroke-opacity: 1; fill: rgb(255, 255, 255); fill-opacity: 1; stroke-width: 0px;"/><g class="scrollbox" transform="" clip-path="url(#legend11577c)"><g class="groups"><g class="traces" transform="translate(0,14.5)" style="opacity: 1;"><text class="legendtext" text-anchor="start" x="40" y="4.680000000000001" style="font-family: 'Open Sans', verdana, arial, sans-serif; font-size: 12px; fill: rgb(42, 63, 95); fill-opacity: 1; white-space: pre;">20240513_5_part7_normal.txt</text><g class="layers" style="opacity: 1;"><g class="legendfill"/><g class="legendlines"><path class="js-line" d="M5,0h30" style="fill: none; stroke: rgb(99, 110, 250); stroke-opacity: 1; stroke-width: 2px;"/></g><g class="legendsymbols"><g class="legendpoints"/></g></g><rect class="legendtoggle" x="0" y="-9.5" width="243.515625" height="19" style="fill: rgb(0, 0, 0); fill-opacity: 0;"/></g><g class="traces" transform="translate(0,33.5)" style="opacity: 1;"><text class="legendtext" text-anchor="start" x="40" y="4.680000000000001" style="font-family: 'Open Sans', verdana, arial, sans-serif; font-size: 12px; fill: rgb(42, 63, 95); fill-opacity: 1; white-space: pre;">20240513_15_part9_hole150,1,7,5.txt</text><g class="layers" style="opacity: 1;"><g class="legendfill"/><g class="legendlines"><path class="js-line" d="M5,0h30" style="fill: none; stroke: rgb(239, 85, 59); stroke-opacity: 1; stroke-width: 2px;"/></g><g class="legendsymbols"><g class="legendpoints"/></g></g><rect class="legendtoggle" x="0" y="-9.5" width="243.515625" height="19" style="fill: rgb(0, 0, 0); fill-opacity: 0;"/></g></g></g><rect class="scrollbar" rx="20" ry="3" width="0" height="0" x="0" y="0" style="fill: rgb(128, 139, 164); fill-opacity: 1;"/></g><g class="g-gtitle"/><g class="g-xtitle"><text class="xtitle" x="350" y="460.3" text-anchor="middle" style="opacity: 1; font-family: 'Open Sans', verdana, arial, sans-serif; font-size: 14px; fill: rgb(42, 63, 95); fill-opacity: 1; white-space: pre;">Wavelength (nm)</text></g><g class="g-ytitle"><text class="ytitle" transform="rotate(-90,42.9125,260)" x="42.9125" y="260" text-anchor="middle" style="opacity: 1; font-family: 'Open Sans', verdana, arial, sans-serif; font-size: 14px; fill: rgb(42, 63, 95); fill-opacity: 1; white-space: pre;">Normalized intentsity (arb.u.)</text></g></g></svg>