<svg class="main-svg" xmlns="http://www.w3.org/2000/svg" xmlns:xlink="http://www.w3.org/1999/xlink" width="700" height="500" style="" viewBox="0 0 700 500"><rect x="0" y="0" width="700" height="500" style="fill: rgb(255, 255, 255); fill-opacity: 1;"/><defs id="defs-e70e67"><g class="clips"><clipPath id="clipe70e67xyplot" class="plotclip"><rect width="540" height="320"/></clipPath><clipPath class="axesclip" id="clipe70e67x"><rect x="80" y="0" width="540" height="500"/></clipPath><clipPath class="axesclip" id="clipe70e67y"><rect x="0" y="100" width="700" height="320"/></clipPath><clipPath class="axesclip" id="clipe70e67xy"><rect x="80" y="100" width="540" height="320"/></clipPath></g><g class="gradients"/><g class="patterns"/></defs><g class="bglayer"/><g class="layer-below"><g class="imagelayer"/><g class="shapelayer"/></g><g class="cartesianlayer"><g class="subplot xy"><g class="layer-subplot"><g class="shapelayer"/><g class="imagelayer"/></g><g class="minor-gridlayer"><g class="x"/><g class="y"><path class="ygrid crisp" transform="translate(0,418.24)" d="M80,0h540" style="stroke: rgb(248, 250, 253); stroke-opacity: 1; stroke-width: 1px;"/><path class="ygrid crisp" transform="translate(0,398.68)" d="M80,0h540" style="stroke: rgb(248, 250, 253); stroke-opacity: 1; stroke-width: 1px;"/><path class="ygrid crisp" transform="translate(0,391.24)" d="M80,0h540" style="stroke: rgb(248, 250, 253); stroke-opacity: 1; stroke-width: 1px;"/><path class="ygrid crisp" transform="translate(0,384.8)" d="M80,0h540" style="stroke: rgb(248, 250, 253); stroke-opacity: 1; stroke-width: 1px;"/><path class="ygrid crisp" transform="translate(0,379.12)" d="M80,0h540" style="stroke: rgb(248, 250, 253); stroke-opacity: 1; stroke-width: 1px;"/><path class="ygrid crisp" transform="translate(0,321.03)" d="M80,0h540" style="stroke: rgb(248, 250, 253); stroke-opacity: 1; stroke-width: 1px;"/><path class="ygrid crisp" transform="translate(0,307.15)" d="M80,0h540" style="stroke: rgb(248, 250, 253); stroke-opacity: 1; stroke-width: 1px;"/><path class="ygrid crisp" transform="translate(0,287.59000000000003)" d="M80,0h540" style="stroke: rgb(248, 250, 253); stroke-opacity: 1; stroke-width: 1px;"/><path class="ygrid crisp" transform="translate(0,280.15999999999997)" d="M80,0h540" style="stroke: rgb(248, 250, 253); stroke-opacity: 1; stroke-width: 1px;"/><path class="ygrid crisp" transform="translate(0,273.71000000000004)" d="M80,0h540" style="stroke: rgb(248, 250, 253); stroke-opacity: 1; stroke-width: 1px;"/><path class="ygrid crisp" transform="translate(0,268.03)" d="M80,0h540" style="stroke: rgb(248, 250, 253); stroke-opacity: 1; stroke-width: 1px;"/><path class="ygrid crisp" transform="translate(0,209.95)" d="M80,0h540" style="stroke: rgb(248, 250, 253); stroke-opacity: 1; stroke-width: 1px;"/><path class="ygrid crisp" transform="translate(0,196.07)" d="M80,0h540" style="stroke: rgb(248, 250, 253); stroke-opacity: 1; stroke-width: 1px;"/><path class="ygrid crisp" transform="translate(0,176.5)" d="M80,0h540" style="stroke: rgb(248, 250, 253); stroke-opacity: 1; stroke-width: 1px;"/><path class="ygrid crisp" transform="translate(0,169.07)" d="M80,0h540" style="stroke: rgb(248, 250, 253); stroke-opacity: 1; stroke-width: 1px;"/><path class="ygrid crisp" transform="translate(0,162.63)" d="M80,0h540" style="stroke: rgb(248, 250, 253); stroke-opacity: 1; stroke-width: 1px;"/><path class="ygrid crisp" transform="translate(0,156.94)" d="M80,0h540" style="stroke: rgb(248, 250, 253); stroke-opacity: 1; stroke-width: 1px;"/></g></g><g class="gridlayer"><g class="x"><path class="xgrid crisp" transform="translate(188,0)" d="M0,100v320" style="stroke: rgb(235, 240, 248); stroke-opacity: 1; stroke-width: 1px;"/><path class="xgrid crisp" transform="translate(296,0)" d="M0,100v320" style="stroke: rgb(235, 240, 248); stroke-opacity: 1; stroke-width: 1px;"/><path class="xgrid crisp" transform="translate(404,0)" d="M0,100v320" style="stroke: rgb(235, 240, 248); stroke-opacity: 1; stroke-width: 1px;"/><path class="xgrid crisp" transform="translate(512,0)" d="M0,100v320" style="stroke: rgb(235, 240, 248); stroke-opacity: 1; stroke-width: 1px;"/></g><g class="y"><path class="ygrid crisp" transform="translate(0,407.48)" d="M80,0h540" style="stroke: rgb(235, 240, 248); stroke-opacity: 1; stroke-width: 1px;"/><path class="ygrid crisp" transform="translate(0,374.04)" d="M80,0h540" style="stroke: rgb(235, 240, 248); stroke-opacity: 1; stroke-width: 1px;"/><path class="ygrid crisp" transform="translate(0,340.6)" d="M80,0h540" style="stroke: rgb(235, 240, 248); stroke-opacity: 1; stroke-width: 1px;"/><path class="ygrid crisp" transform="translate(0,296.39)" d="M80,0h540" style="stroke: rgb(235, 240, 248); stroke-opacity: 1; stroke-width: 1px;"/><path class="ygrid crisp" transform="translate(0,262.95)" d="M80,0h540" style="stroke: rgb(235, 240, 248); stroke-opacity: 1; stroke-width: 1px;"/><path class="ygrid crisp" transform="translate(0,229.51)" d="M80,0h540" style="stroke: rgb(235, 240, 248); stroke-opacity: 1; stroke-width: 1px;"/><path class="ygrid crisp" transform="translate(0,185.3)" d="M80,0h540" style="stroke: rgb(235, 240, 248); stroke-opacity: 1; stroke-width: 1px;"/><path class="ygrid crisp" transform="translate(0,151.86)" d="M80,0h540" style="stroke: rgb(235, 240, 248); stroke-opacity: 1; stroke-width: 1px;"/><path class="ygrid crisp" transform="translate(0,118.42)" d="M80,0h540" style="stroke: rgb(235, 240, 248); stroke-opacity: 1; stroke-width: 1px;"/></g></g><g class="zerolinelayer"/><g class="layer-between"><g class="shapelayer"/><g class="imagelayer"/></g><path class="xlines-below"/><path class="ylines-below"/><g class="overlines-below"/><g class="xaxislayer-below"/><g class="yaxislayer-below"/><g class="overaxes-below"/><g class="overplot"><g class="xy" transform="translate(80,100)" clip-path="url(#clipe70e67xyplot)"><g class="scatterlayer mlayer"><g class="trace scatter traced5c568" style="stroke-miterlimit: 2; opacity: 1;"><g class="fills"/><g class="errorbars"/><g class="lines"><path class="js-line" d="M0,245.2L0.59,237.98L0.88,239.72L1.03,241.19L1.47,244.03L1.77,242.01L1.91,241.16L2.21,241.39L2.35,242.11L3.38,244.17L3.53,244.18L3.68,244.17L3.82,243.02L4.12,240.57L4.41,242.79L4.56,243.97L5,244.56L5.15,243.66L5.3,242.62L6.33,239.45L6.47,239.87L7.21,244.06L7.65,242.88L7.8,241.8L8.97,238.19L9.12,238.23L9.27,238.31L10.59,243.05L10.74,244L11.62,237.66L11.92,239.02L12.06,239.92L12.36,240.6L12.5,240.1L12.65,238.77L13.39,236.26L13.53,236.45L13.68,236.57L14.27,236.29L14.42,235.51L15.59,232.69L15.74,232.73L16.33,234.44L16.47,235.08L17.36,236.74L17.5,236.12L18.09,234.74L18.39,234.92L18.53,235.29L18.68,235.51L18.83,235.09L18.98,234.41L19.86,233.51L20.01,234.06L20.45,235.66L20.89,234.85L21.04,234.02L22.36,229.04L22.51,229.08L22.95,230.09L23.09,230.62L23.68,233.34L23.98,232.55L24.12,231.53L25.01,227.54L25.3,228.36L25.45,228.59L25.74,228.13L25.89,228.71L26.04,229.74L26.62,231.15L26.77,231.1L26.92,230.44L27.8,227.85L27.95,228.07L28.1,229.16L28.39,230.33L28.83,229.62L28.98,228.39L29.27,227.2L29.57,228.81L29.71,229.38L30.16,231.25L30.3,230.52L30.45,229.02L31.48,225.71L31.63,225.92L31.92,226.4L32.21,225.48L32.36,225.33L32.8,227.16L33.1,225.69L33.24,224.59L33.69,222.94L33.98,223.57L34.13,224.01L35.16,224.61L35.3,224.4L35.45,224.14L35.6,224.06L35.75,224.66L35.89,225.43L36.92,226.85L37.07,227L37.66,228.27L37.8,227.01L38.54,221.71L38.83,222.83L38.98,223.74L39.28,224.06L39.42,223.72L39.57,222.98L40.75,220.81L40.89,220.97L41.78,222.55L41.92,222.37L42.07,221.79L42.51,219.48L42.81,220.37L42.95,221.39L43.39,222.31L43.54,221.72L43.69,220.72L44.42,217L44.72,217.25L44.87,218.71L45.31,222.81L45.75,221.29L45.89,220.3L46.48,218.58L46.63,219.22L46.78,219.9L46.92,220.56L47.22,219.56L47.37,218.91L47.51,218.74L47.81,219.4L47.95,220.34L48.25,221.52L48.54,220.01L48.69,219.29L48.98,219.91L49.13,220.35L49.43,219.58L49.57,218.87L50.16,221.63L50.45,221.02L50.6,220.52L51.78,218.21L51.93,217.92L53.4,217.72L53.54,217.33L53.99,216.48L54.13,215.46L54.87,214.29L55.01,214.69L55.16,215.49L56.34,219.23L56.49,218.74L56.63,218.2L58.99,212.19L59.13,212.32L59.28,212.64L59.72,213.36L60.02,212.77L60.16,212.36L61.49,209.93L61.63,210.48L61.78,211.09L62.08,211.85L62.37,211.3L62.52,210.66L62.81,210.11L63.11,210.69L63.25,210.91L63.69,211.12L63.84,210.93L63.99,210.59L65.16,208.92L65.31,209.32L65.9,210.76L66.05,210.23L66.19,209.77L67.37,205.91L67.67,206.8L67.81,207.1L68.25,207.25L68.4,206.68L68.55,206.09L68.7,205.79L68.99,206.6L69.14,206.95L69.58,207.36L69.72,206.62L69.87,205.9L70.61,204.55L70.75,204.59L70.9,204.83L71.34,204.18L71.64,204.78L71.78,205.18L72.23,206.6L72.52,205.39L72.67,204.6L73.11,204.46L73.26,203.79L74.43,202.32L74.58,202.1L74.87,202.15L75.02,202.44L75.17,202.7L75.76,203.18L75.9,202.83L76.05,202.49L77.82,199.28L77.96,199.61L78.4,199.73L78.55,199.5L78.7,199.2L79.29,197.64L79.43,198.19L79.58,198.78L79.73,199.13L80.02,198.3L80.17,198.04L80.61,198.15L80.76,197.84L80.9,197.52L81.35,197.33L81.49,197.6L81.64,197.99L82.38,198.54L82.52,198.19L82.67,197.91L83.26,196.88L83.41,196.52L84.14,194.45L84.43,195.01L84.58,195.32L86.35,192.87L86.49,193.21L86.64,193.6L86.79,193.99L87.38,193.53L87.52,193.37L88.11,191.83L88.55,192.47L88.7,192.38L89.58,190.96L89.73,190.7L90.32,189.48L90.47,190.11L90.61,190.87L90.91,191.59L91.2,191.19L91.35,190.39L91.64,189.03L92.08,189.87L92.23,190.25L92.53,190.69L92.67,190.22L92.82,189.72L93.11,189.22L93.55,189.58L93.7,189.63L95.47,188.84L95.61,189.05L97.23,186.22L97.38,185.7L98.56,186.04L98.7,185.49L100.17,183.36L100.32,183.29L101.35,183.56L101.5,183.82L101.79,184.34L102.23,183.84L102.38,183.39L102.82,182.67L103.26,182.88L103.41,182.89L105.76,179.49L105.91,179.47L106.65,179.21L106.79,178.92L109.15,176.56L109.29,176.61L109.74,177.27L110.03,176.82L110.18,176.52L111.65,175.47L111.8,175.32L112.38,174.52L112.53,173.87L112.82,172.83L113.41,173.06L113.56,172.89L114.15,171.69L114.59,172.36L114.74,172.45L115.33,171.31L115.47,170.83L116.8,169.37L117.24,169.83L117.38,169.73L117.97,169.09L118.12,168.69L120.47,165.9L120.62,165.92L121.65,164.59L121.8,164.41L124.45,160.52L124.59,160.06L124.74,159.71L125.33,160.06L125.48,159.9L131.65,152.03L131.8,151.81L134.3,149.27L134.45,149.01L137.54,144.44L137.68,144.54L138.27,144.19L138.42,143.98L140.92,139.98L141.07,139.82L150.34,124.75L150.48,124.49L155.63,116.89L155.78,117.27L155.92,117.73L156.22,118.07L156.51,117.83L156.66,117.53L158.28,112.08L158.57,113.1L158.72,113.59L159.16,113.32L159.31,112.67L159.9,110.92L160.19,111.09L160.34,111.29L160.78,111.18L160.93,110.99L161.07,110.77L162.69,107.98L162.99,108.61L163.13,109.22L163.72,112.84L164.16,111.8L164.31,111.17L165.04,109.36L165.19,107.61L165.78,104.32L166.07,106.08L166.22,106.93L166.66,106.4L166.81,105.59L167.99,102.16L168.13,102.24L168.58,103.92L168.72,105.17L168.87,106L169.16,103.93L169.31,102.62L169.75,99.94L170.05,102.38L170.19,103.78L171.81,112.09L171.96,111.43L172.11,108.57L173.28,91.66L173.43,92.29L173.58,93.32L174.46,103.33L174.75,102.65L174.9,101.89L175.64,93.16L175.78,91.07L176.37,88.17L176.67,89.05L176.81,89.63L177.84,95.96L178.28,95.31L178.43,95.37L178.73,93.29L178.87,91.23L179.46,84.78L179.9,86.78L180.05,86.81L180.64,86.76L180.78,87.15L181.23,90.3L181.52,88.56L181.67,87.53L184.46,77.53L184.61,77.57L185.05,78.82L185.2,79.32L185.64,78.6L185.79,77.94L186.82,76.32L186.96,76.24L187.7,78.77L187.85,78.63L187.99,77.44L188.73,72.58L188.88,73.59L189.02,75.06L189.61,80.46L189.9,77.58L190.05,75.91L190.49,71.91L190.93,74.17L191.08,77.1L191.82,89.75L192.11,84.08L192.26,81.04L192.85,73.95L193.14,75.37L193.29,78.82L194.02,92.45L194.17,89.11L194.32,84.96L195.64,70.75L195.79,70.3L196.38,74.19L196.67,73.78L196.82,72.87L198.73,63.38L198.88,63.82L199.76,74.7L200.05,70.64L200.2,68.41L201.08,60.5L201.38,61.24L201.53,61.53L203.14,57.54L203.29,57.62L203.44,58.38L204.03,66.49L204.17,69.06L204.32,69.35L204.47,68.98L204.61,67.97L205.94,54.81L206.09,54.99L206.53,57.36L206.67,59.17L207.41,64.55L207.7,63.96L207.85,63.14L208.14,61.83L208.29,62.86L208.44,64.25L208.59,65.09L208.88,62.54L209.03,60.89L210.5,49.06L210.65,48.87L211.09,48.46L211.23,48.6L211.38,49.46L213,60.69L213.44,59.57L213.59,58.43L215.79,44.08L215.94,43.99L216.53,44.04L216.68,44.6L217.56,51.7L217.71,53.86L217.85,55.21L218.15,52.03L218.29,50.1L219.18,41.25L219.47,42.5L219.62,43.39L220.35,48.54L220.65,46.74L220.8,44.85L221.68,39.39L221.83,39.68L221.97,40.85L222.71,47.55L223,45.35L223.15,43.98L224.47,36.17L224.62,35.95L225.36,35.48L225.5,35.76L225.65,36.07L225.8,36.17L225.94,35.69L226.09,35.11L226.68,33.21L226.97,33.81L227.12,34.38L228,39.51L228.3,38.59L228.44,37.94L230.36,29.31L230.5,29.28L231.39,30.19L231.53,30.27L232.27,29L232.56,29.86L232.71,30.76L233.3,31.87L233.45,31.33L233.59,30.73L235.8,24.63L235.95,24.32L236.83,23.57L236.98,23.72L237.12,23.89L238.15,25.66L238.3,25.28L238.45,24.82L239.48,21.41L239.77,21.64L239.92,21.69L240.65,20.7L240.8,20.37L241.68,19.81L241.83,19.91L241.98,20.02L243.3,19.96L243.45,19.78L245.66,17.14L245.8,17.5L246.54,18.94L246.98,18.63L247.13,18.88L247.42,19.24L247.71,18.63L247.86,18.24L248.74,16.23L248.89,16.46L249.04,16.72L249.63,18.31L249.92,17.63L250.07,17.28L250.95,16L251.1,16.17L251.24,16.36L252.72,17.34L252.86,17.99L253.16,19.04L253.6,18.6L253.75,18.13L254.33,17.1L254.63,17.6L254.78,18.05L255.36,18.88L255.66,18.51L255.8,18.37L256.54,18.61L256.69,18.93L257.57,20.84L257.72,20.65L257.86,20.47L258.45,21.07L258.6,21.44L259.48,21.84L259.63,21.85L260.51,23.19L260.66,23.44L261.25,25.69L261.39,26.81L261.98,29.83L262.28,28.87L262.42,28.47L262.87,27.74L263.16,28.23L263.31,28.46L265.81,33.82L265.95,34.3L268.16,41.24L268.31,41.59L271.25,50.52L271.4,51.12L279.34,83.38L279.49,83.97L294.2,143.79L294.34,144.14L295.96,150.1L296.11,150.96L297.58,155.03L297.73,155.58L301.11,168.28L301.26,168.69L305.38,180.76L305.52,181.37L306.85,185.25L307,185.82L312,201.6L312.14,201.45L312.29,201.1L312.88,201.02L313.03,201.2L313.17,201.99L314.79,207.89L314.94,207.4L315.23,206.74L315.38,207.51L315.53,208.48L316.85,214.39L317,214.24L317.15,214.16L317.44,214.71L317.59,216.36L318.17,220.79L318.47,219.45L318.62,218.5L318.76,217.96L319.06,218.92L319.2,219.91L319.65,224.58L320.23,224.2L320.38,224.51L321.85,230.73L322.15,230.06L322.29,229.22L322.73,229.76L322.88,230L323.76,232.28L323.91,233.39L325.24,239.57L325.38,239.81L325.68,240.34L325.97,239.6L326.12,239.3L326.27,239.47L326.41,238.82L326.56,238L327.15,236.59L327.29,237.22L327.44,238.08L328.91,250.45L329.21,249L329.35,248.38L329.8,247.01L330.09,248.05L330.24,248.85L330.53,249.66L330.68,249.05L330.83,247.55L331.12,245.8L331.41,247.51L331.56,248.17L332.74,252.7L333.03,251.89L333.18,251.67L334.65,257.79L334.94,257.41L335.09,256.39L335.39,255.93L335.53,256.25L335.68,257.42L336.71,260.39L336.86,259.28L337.15,258.03L337.59,258.78L337.74,258.77L339.06,265.21L339.21,263.86L339.95,254.93L340.09,257.02L340.24,259.26L340.68,261.05L340.98,259.49L341.12,258.11L341.27,257.98L341.42,260.33L342.01,268.89L342.3,266.43L342.45,264.4L343.03,261.05L343.18,262.2L343.33,263.62L344.8,277.74L344.95,275.2L345.83,266.96L345.98,267.12L346.12,270.09L346.86,275.22L347.01,272.52L347.15,270.45L347.45,268.67L347.74,271.36L347.89,273.56L348.33,279.6L348.62,275.48L348.77,273.43L350.39,267.28L350.54,269.36L350.83,273.12L351.27,269.2L351.42,266.4L351.71,264.65L351.86,266.03L352.01,268.18L352.45,272.02L352.89,271.17L353.04,271.64L353.33,270.67L353.48,269.75L353.77,271.99L353.92,273.85L355.69,287.49L355.83,286.23L356.71,272.13L357.01,274.97L357.16,276.41L357.45,275.68L357.6,274.45L358.33,271.69L358.63,272.62L358.77,273.29L359.22,278.21L359.8,277.52L359.95,277.54L360.54,272.68L360.69,273.99L360.83,277.4L361.42,284.47L361.57,282.23L361.72,279.65L362.75,269.29L362.89,272.85L363.04,277.8L363.63,288.19L363.78,284.05L363.92,279.83L364.07,276.4L364.51,280.95L364.66,284.14L364.95,288.49L365.25,284.08L365.39,281.78L365.54,280.89L365.83,282.83L365.98,284.92L366.28,287.49L366.57,284.26L366.72,283.43L367.31,290.43L367.6,287.66L367.75,286.46L368.34,286.7L368.48,287.33L369.22,294.13L369.51,291.83L369.66,288.37L369.95,284.29L370.25,286.2L370.4,289.29L370.69,294.93L371.13,290.96L371.28,287.75L372.45,274.8L372.6,276.49L372.75,279.04L374.22,304L374.37,303.15L374.51,300.65L375.1,289.5L375.69,291.16L375.84,290.85L376.13,286.05L376.28,282L376.43,279.4L377.01,282.35L377.16,283.84L378.04,293.86L378.34,291.28L378.49,289.38L378.63,289.47L378.78,287.21L379.81,279.98L379.96,280.11L380.69,285.97L380.84,289.41L380.99,289.72L381.13,289.02L381.28,288.28L382.6,281.6L382.75,281.23L382.9,280.43L383.19,282.24L383.34,284.64L384.37,294.76L384.52,291.8L385.25,272.52L385.55,278.62L385.69,281.44L385.99,282.64L386.13,281.73L386.28,278.51L386.58,274.53L386.87,280.69L387.02,284.88L387.46,292.26L387.75,284.99L387.9,282.31L388.34,280.05L388.78,280.57L388.93,281.12L389.22,283.44L389.37,287.51L389.66,294.31L390.11,294.03L390.25,289.95L391.28,278.94L391.43,280.74L391.87,284.19L392.17,283.25L392.31,281.75L392.61,280.79L392.75,281.98L392.9,284.41L393.64,288.73L393.78,287.98L393.93,287.54L395.11,276.98L395.55,277.41L395.7,277.8L396.28,285.07L396.43,282.15L396.58,279.13L397.02,272.34L397.31,275.42L397.46,278.41L397.61,281.25L398.34,281.02L398.49,281.57L399.08,286L399.23,287.65L399.37,289.07L399.81,287.17L399.96,286.93L400.99,292.3L401.14,290.09L401.87,278.32L402.17,282.29L402.32,284.4L402.61,286.71L402.9,283.2L403.05,279.87L403.35,275.9L403.79,277.59L403.93,278.19L404.37,282.39L404.52,283.92L404.67,284.21L404.82,282.29L404.96,282.19L405.11,283.87L405.4,286.79L405.55,283.3L405.7,278.83L405.85,275.15L406.29,280.19L406.43,282.98L406.73,288.65L407.17,284.15L407.32,283.07L408.05,274.41L408.2,277.55L408.35,282.68L408.64,289.23L409.08,284.43L409.23,279.81L409.38,275.86L409.82,281.94L409.96,286.4L410.26,292.94L410.55,286.38L410.7,282.54L410.99,280.83L411.29,284.1L411.44,286.47L411.58,287.97L412.02,284.7L412.17,285.22L412.47,286.62L412.76,284.43L412.91,282.14L413.05,281.45L413.35,283.44L413.49,284.33L413.79,286.72L414.23,284.61L414.38,284.74L414.82,286.04L415.11,285.06L415.26,284.76L416.44,290.05L416.58,288.26L417.76,275.11L418.06,278.04L418.2,279.74L419.23,289.26L419.38,294.76L419.53,299.43L419.97,293.59L420.11,290.17L420.56,282.79L421,284.09L421.14,284.47L421.59,278.79L421.73,277.96L422.17,277.33L422.32,278.69L423.06,285.67L423.35,284.8L423.5,282.56L424.53,277.1L424.67,276.35L425.56,285.01L426.15,284.53L426.29,284.58L426.59,283.73L426.73,282.09L427.62,280.16L427.76,280.33L428.79,284.34L428.94,285.76L429.09,287.07L429.53,285.17L429.68,285.74L429.82,283.46L430.56,270.86L430.85,274.22L431,275.87L431.44,280.28L431.88,278.41L432.03,278.53L432.18,278.68L432.32,280.69L432.76,287.4L433.06,281.82L433.21,279.24L433.5,279.5L433.65,278.69L433.79,277.66L434.38,276.14L434.53,276.81L434.68,280.29L435.41,294.4L435.71,287.43L435.85,282.84L436.15,283.17L436.3,282.16L437.18,276.74L437.32,277.83L438.94,288.11L439.09,286.91L439.24,285.59L440.86,273.24L441,274.03L441.44,278.76L441.74,274.93L441.89,272.06L442.33,265.99L442.62,268.25L442.77,270.38L443.8,277.57L443.94,276.58L444.24,275.3L444.53,276.41L444.68,277.55L446.15,285.66L446.3,285.46L446.45,283.6L447.18,273.1L447.47,274.49L447.62,276.55L447.92,281.55L448.36,276.44L448.5,274.79L448.95,268.06L449.39,271.81L449.53,272.16L449.83,271.75L450.12,272.21L450.27,273.88L450.71,278.47L450.86,276.06L451.01,272.9L451.15,270.97L451.59,275.05L451.74,277.34L452.03,281.03L452.48,278.32L452.62,276.76L453.21,269.09L453.36,269.46L453.51,274.48L453.8,288.21L454.24,282.02L454.39,277.53L454.68,269.18L455.12,275.15L455.27,278.82L455.57,284.24L456.15,282.7L456.3,284.92L456.74,289.28L456.89,287.97L457.04,284.67L457.33,281.52L457.62,286.64L457.77,288.31L458.21,283.37L458.51,286.51L458.65,287.72L459.54,278.32L459.83,281.13L459.98,282.96L460.42,279.47L460.57,280.28L460.71,281.99L461.6,286.43L461.74,285.76L461.89,282.87L463.07,274.89L463.21,274.56L463.36,274.24L463.51,275.09L463.66,277.91L464.83,292.77L464.98,292.53L465.13,291.85L465.42,288.43L465.57,285.91L465.72,284.52L466.01,288.68L466.16,290.7L466.45,291.52L466.6,288.62L467.48,279.76L467.63,280.25L467.77,280.97L468.07,279.71L468.36,280.61L468.51,280.74L469.69,275.58L469.83,276.13L469.98,277.33L470.72,280.84L470.86,280.47L471.01,279.79L471.89,283.95L472.04,283.32L472.19,283.07L472.63,285.07L472.92,283.29L473.07,282.14L473.51,280.73L473.66,281.54L473.81,283.41L474.1,287.28L474.54,284.95L474.69,284.12L474.98,284.82L475.13,284.4L475.28,282.58L475.72,272.74L476.16,278.78L476.31,278.56L476.6,277.74L476.75,276.05L477.04,270.08L477.48,276.12L477.63,279.9L477.92,287.33L478.22,281L478.37,276.9L478.51,276.23L478.81,278.19L478.95,278.26L479.84,280.66L479.98,283.82L480.57,288.26L480.72,286.48L480.87,283.26L481.9,277.28L482.04,279.59L482.48,283.36L482.78,283.23L482.93,281.12L483.22,279.14L483.37,281.68L483.51,285.02L484.1,287.48L484.25,285.46L484.4,282.66L484.54,280.24L484.99,283.67L485.13,282.62L485.28,280.9L485.87,276.78L486.16,276.89L486.31,277.92L486.6,279.13L486.9,277.5L487.04,276.08L487.49,272.98L487.63,274.4L487.78,276.92L488.52,284.02L488.81,282.39L488.96,280.1L489.4,273.02L489.69,276.25L489.84,278.75L491.02,287.33L491.16,288.62L491.46,288.56L491.6,286.4L492.34,274.92L492.78,277.86L492.93,280.44L493.08,280.75L493.22,280.59L493.37,279.11L494.11,275.62L494.25,274.8L494.84,277.56L494.99,278.85L495.13,280.1L495.28,277.79L495.43,276.01L495.87,276.86L496.16,273.44L496.31,271.59L496.46,272.06L496.61,275.07L497.34,285.35L497.49,282.58L497.64,279.98L498.52,272.58L498.67,274.34L498.81,278.18L499.11,284.37L499.55,278.97L499.69,276.3L499.99,273.59L500.28,276.65L500.43,279.64L500.87,287.27L501.17,284.33L501.31,281.97L501.61,280.41L501.75,281.57L501.9,283.16L502.05,284.44L502.34,282.43L502.49,281.72L503.08,288.63L503.23,286.21L503.37,283.2L503.52,282.73L503.67,284.14L503.81,286.42L504.4,290.01L504.55,288.9L504.7,287.07L505.73,281.7L505.87,282.26L506.76,290.18L506.9,290.14L507.05,286.88L508.23,276.58L508.37,276.96L510.14,292.72L510.43,290.77L510.58,290.51L512.05,278.86L512.2,275.62L513.52,283.86L513.82,282.54L513.96,280.19L515.14,275.29L515.29,276.1L515.88,279.72L516.02,278.96L516.17,277.12L516.61,279.19L516.76,280.16L517.05,282.36L517.64,281.98L517.79,282.12L518.23,278.34L518.52,280.27L518.67,280.71L518.82,280.46L518.96,281.51L519.11,283.73L519.41,288.31L519.85,284.44L519.99,283.59L520.14,283.67L520.29,281.65L521.02,270.48L521.32,275.1L521.47,277.47L521.91,279.35L522.05,277.87L522.2,276.52L522.35,276.01L522.5,277.52L522.64,279.15L523.23,284.57L523.53,281.02L523.67,278.64L524.85,272.37L525,272.78L525.14,276.34L525.73,287.94L526.03,281.7L526.17,276.33L526.32,273.26L526.91,275.68L527.06,276.81L527.35,279.47L527.79,277.74L527.94,277.18L528.38,274.19L528.53,275.7L528.67,278.35L529.41,288.58L529.7,285L529.85,282.89L531.17,272.02L531.47,273.31L531.62,275.02L531.76,275.75L532.06,274.87L532.2,273.76L532.5,271.53L532.94,272.91L533.09,273.38L533.38,274.15L533.82,273.87L533.97,275.21L534.12,276.15L534.41,274.15L534.56,272.91L534.7,272.22L534.85,273.1L535,274.6L535.88,290.51L536.18,285.11L536.32,281.98L536.76,283.32L536.91,282.26L537.06,281.06L537.65,272.38L538.09,275.91L538.23,276.64L538.38,276.65L538.53,275.66L539.41,267L539.56,268.78L539.71,270.93L540,273.49" style="vector-effect: none; fill: none; stroke: rgb(99, 110, 250); stroke-opacity: 1; stroke-width: 2px; opacity: 1;"/></g><g class="points"/><g class="text"/></g></g></g></g><path class="xlines-above crisp" d="M0,0" style="fill: none;"/><path class="ylines-above crisp" d="M0,0" style="fill: none;"/><g class="overlines-above"/><g class="xaxislayer-above"><g class="xtick"><text text-anchor="middle" x="0" y="433" transform="translate(80,0)" style="font-family: 'Open Sans', verdana, arial, sans-serif; font-size: 12px; fill: rgb(42, 63, 95); fill-opacity: 1; white-space: pre; opacity: 1;">1200</text></g><g class="xtick"><text text-anchor="middle" x="0" y="433" style="font-family: 'Open Sans', verdana, arial, sans-serif; font-size: 12px; fill: rgb(42, 63, 95); fill-opacity: 1; white-space: pre; opacity: 1;" transform="translate(188,0)">1300</text></g><g class="xtick"><text text-anchor="middle" x="0" y="433" style="font-family: 'Open Sans', verdana, arial, sans-serif; font-size: 12px; fill: rgb(42, 63, 95); fill-opacity: 1; white-space: pre; opacity: 1;" transform="translate(296,0)">1400</text></g><g class="xtick"><text text-anchor="middle" x="0" y="433" style="font-family: 'Open Sans', verdana, arial, sans-serif; font-size: 12px; fill: rgb(42, 63, 95); fill-opacity: 1; white-space: pre; opacity: 1;" transform="translate(404,0)">1500</text></g><g class="xtick"><text text-anchor="middle" x="0" y="433" style="font-family: 'Open Sans', verdana, arial, sans-serif; font-size: 12px; fill: rgb(42, 63, 95); fill-opacity: 1; white-space: pre; opacity: 1;" transform="translate(512,0)">1600</text></g><g class="xtick"><text text-anchor="middle" x="0" y="433" style="font-family: 'Open Sans', verdana, arial, sans-serif; font-size: 12px; fill: rgb(42, 63, 95); fill-opacity: 1; white-space: pre; opacity: 1;" transform="translate(620,0)">1700</text></g></g><g class="yaxislayer-above"><path class="ytick ticks crisp" d="M80,0h3" transform="translate(0,418.24)" style="stroke: rgb(68, 68, 68); stroke-opacity: 1; stroke-width: 1px;"/><path class="ytick ticks crisp" d="M80,0h3" transform="translate(0,398.68)" style="stroke: rgb(68, 68, 68); stroke-opacity: 1; stroke-width: 1px;"/><path class="ytick ticks crisp" d="M80,0h3" transform="translate(0,391.24)" style="stroke: rgb(68, 68, 68); stroke-opacity: 1; stroke-width: 1px;"/><path class="ytick ticks crisp" d="M80,0h3" transform="translate(0,384.8)" style="stroke: rgb(68, 68, 68); stroke-opacity: 1; stroke-width: 1px;"/><path class="ytick ticks crisp" d="M80,0h3" transform="translate(0,379.12)" style="stroke: rgb(68, 68, 68); stroke-opacity: 1; stroke-width: 1px;"/><path class="ytick ticks crisp" d="M80,0h3" transform="translate(0,321.03)" style="stroke: rgb(68, 68, 68); stroke-opacity: 1; stroke-width: 1px;"/><path class="ytick ticks crisp" d="M80,0h3" transform="translate(0,307.15)" style="stroke: rgb(68, 68, 68); stroke-opacity: 1; stroke-width: 1px;"/><path class="ytick ticks crisp" d="M80,0h3" transform="translate(0,287.59000000000003)" style="stroke: rgb(68, 68, 68); stroke-opacity: 1; stroke-width: 1px;"/><path class="ytick ticks crisp" d="M80,0h3" transform="translate(0,280.15999999999997)" style="stroke: rgb(68, 68, 68); stroke-opacity: 1; stroke-width: 1px;"/><path class="ytick ticks crisp" d="M80,0h3" transform="translate(0,273.71000000000004)" style="stroke: rgb(68, 68, 68); stroke-opacity: 1; stroke-width: 1px;"/><path class="ytick ticks crisp" d="M80,0h3" transform="translate(0,268.03)" style="stroke: rgb(68, 68, 68); stroke-opacity: 1; stroke-width: 1px;"/><path class="ytick ticks crisp" d="M80,0h3" transform="translate(0,209.95)" style="stroke: rgb(68, 68, 68); stroke-opacity: 1; stroke-width: 1px;"/><path class="ytick ticks crisp" d="M80,0h3" transform="translate(0,196.07)" style="stroke: rgb(68, 68, 68); stroke-opacity: 1; stroke-width: 1px;"/><path class="ytick ticks crisp" d="M80,0h3" transform="translate(0,176.5)" style="stroke: rgb(68, 68, 68); stroke-opacity: 1; stroke-width: 1px;"/><path class="ytick ticks crisp" d="M80,0h3" transform="translate(0,169.07)" style="stroke: rgb(68, 68, 68); stroke-opacity: 1; stroke-width: 1px;"/><path class="ytick ticks crisp" d="M80,0h3" transform="translate(0,162.63)" style="stroke: rgb(68, 68, 68); stroke-opacity: 1; stroke-width: 1px;"/><path class="ytick ticks crisp" d="M80,0h3" transform="translate(0,156.94)" style="stroke: rgb(68, 68, 68); stroke-opacity: 1; stroke-width: 1px;"/><g class="ytick"><text text-anchor="end" x="79" y="3.15" transform="translate(0,407.48)" style="font-family: 'Open Sans', verdana, arial, sans-serif; font-size: 9px; fill: rgb(42, 63, 95); fill-opacity: 1; white-space: pre; opacity: 1;">5</text></g><g class="ytick"><text text-anchor="end" x="79" y="4.199999999999999" style="font-family: 'Open Sans', verdana, arial, sans-serif; font-size: 12px; fill: rgb(42, 63, 95); fill-opacity: 1; white-space: pre; opacity: 1;" transform="translate(0,374.04)">100</text></g><g class="ytick"><text text-anchor="end" x="79" y="3.15" style="font-family: 'Open Sans', verdana, arial, sans-serif; font-size: 9px; fill: rgb(42, 63, 95); fill-opacity: 1; white-space: pre; opacity: 1;" transform="translate(0,340.6)">2</text></g><g class="ytick"><text text-anchor="end" x="79" y="3.15" style="font-family: 'Open Sans', verdana, arial, sans-serif; font-size: 9px; fill: rgb(42, 63, 95); fill-opacity: 1; white-space: pre; opacity: 1;" transform="translate(0,296.39)">5</text></g><g class="ytick"><text text-anchor="end" x="79" y="4.199999999999999" style="font-family: 'Open Sans', verdana, arial, sans-serif; font-size: 12px; fill: rgb(42, 63, 95); fill-opacity: 1; white-space: pre; opacity: 1;" transform="translate(0,262.95)">1000</text></g><g class="ytick"><text text-anchor="end" x="79" y="3.15" style="font-family: 'Open Sans', verdana, arial, sans-serif; font-size: 9px; fill: rgb(42, 63, 95); fill-opacity: 1; white-space: pre; opacity: 1;" transform="translate(0,229.51)">2</text></g><g class="ytick"><text text-anchor="end" x="79" y="3.15" style="font-family: 'Open Sans', verdana, arial, sans-serif; font-size: 9px; fill: rgb(42, 63, 95); fill-opacity: 1; white-space: pre; opacity: 1;" transform="translate(0,185.3)">5</text></g><g class="ytick"><text text-anchor="end" x="79" y="4.199999999999999" style="font-family: 'Open Sans', verdana, arial, sans-serif; font-size: 12px; fill: rgb(42, 63, 95); fill-opacity: 1; white-space: pre; opacity: 1;" transform="translate(0,151.86)">10k</text></g><g class="ytick"><text text-anchor="end" x="79" y="3.15" style="font-family: 'Open Sans', verdana, arial, sans-serif; font-size: 9px; fill: rgb(42, 63, 95); fill-opacity: 1; white-space: pre; opacity: 1;" transform="translate(0,118.42)">2</text></g></g><g class="overaxes-above"/></g></g><g class="polarlayer"/><g class="smithlayer"/><g class="ternarylayer"/><g class="geolayer"/><g class="funnelarealayer"/><g class="pielayer"/><g class="iciclelayer"/><g class="treemaplayer"/><g class="sunburstlayer"/><g class="glimages"/><defs id="topdefs-e70e67"><g class="clips"/></defs><g class="layer-above"><g class="imagelayer"/><g class="shapelayer"/></g><g class="infolayer"><g class="g-gtitle"/><g class="g-xtitle"><text class="xtitle" x="350" y="460.3" text-anchor="middle" style="opacity: 1; font-family: 'Open Sans', verdana, arial, sans-serif; font-size: 14px; fill: rgb(42, 63, 95); fill-opacity: 1; white-space: pre;">Wavelength (nm)</text></g><g class="g-ytitle"><text class="ytitle" transform="rotate(-90,32.896875,260)" x="32.896875" y="260" text-anchor="middle" style="opacity: 1; font-family: 'Open Sans', verdana, arial, sans-serif; font-size: 14px; fill: rgb(42, 63, 95); fill-opacity: 1; white-space: pre;">Intentsity (arb.u.)</text></g></g></svg>